<svg id="Layer_1" data-name="Layer 1" xmlns="http://www.w3.org/2000/svg" viewBox="0 0 76 25"><defs><style>.cls-1{fill:#93bf3e;}.cls-2{fill:#fff;}.cls-3{fill:#0aaf58;}.cls-4{fill:#e20a7e;}.cls-5{fill:#f19021;}.cls-6{fill:#df2127;}.cls-7{fill:#0094d9;}</style></defs><title>Blibli Logo Guideline 2020</title><path class="cls-1" d="M8.78.34A.56.56,0,0,0,8.22,0a.55.55,0,0,0-.48.45h0S6.88,0,7.1.52a4.15,4.15,0,0,0,.62.87A6,6,0,0,0,9,1.24a4.56,4.56,0,0,0,.37-1c.11-.5-.57,0-.63.07"/><path class="cls-2" d="M12.1,14.08a4,4,0,0,1-8,0,.56.56,0,0,1,1.11,0h0a2.91,2.91,0,1,0,5.81,0h0a.56.56,0,0,1,1.11,0"/><path class="cls-1" d="M11.16,7.32l-.53-4.58a.35.35,0,0,0-.16-.23L8.63,1.63,8,1.7,6.54,2.93l0,0a.43.43,0,0,0-.11.28v0l.52,4.52Z"/><path class="cls-3" d="M10.31,1.44a5.63,5.63,0,0,0-.2-1L8.8,1.22a.63.63,0,0,0-.42-.16.6.6,0,0,0-.49.24L6.49.86a5.08,5.08,0,0,0,0,1,3.66,3.66,0,0,0,.25.92l1.22-.7a.64.64,0,0,0,.48.22A.65.65,0,0,0,8.94,2l1.37.45a5.79,5.79,0,0,0,0-1"/><path class="cls-4" d="M9.21,8.47l6.38-.37h.1l.48-1.91a.43.43,0,0,0-.31-.53L10,4.17a.43.43,0,0,0-.53.32l-1,4,.8,0"/><path class="cls-5" d="M12.89,8.26l.86-3.09-1.7-.43-1,3.63,1.84-.11"/><path class="cls-5" d="M15.55,4.23a.68.68,0,0,0-.2-.24c-.66-.57-1.68.31-2,.65a.46.46,0,0,0-.3-.22.47.47,0,0,0-.35,0c-.2-.48-.76-1.62-1.58-1.38a.87.87,0,0,0-.27.14.57.57,0,0,0-.29.56c.11.6,1.44,1,1.9,1.15a.49.49,0,0,0,.36.41.48.48,0,0,0,.53-.23h0c.44.06,1.89.24,2.24-.27a.57.57,0,0,0,0-.63m-4.46-.38a.18.18,0,0,1,0-.24.26.26,0,0,1,.14-.09c.33-.09.68.4.91.85a3.91,3.91,0,0,1-1-.52m4.12.75c-.12.18-.67.19-1.32.14.39-.33.91-.63,1.17-.41s.18.22.15.27"/><path class="cls-5" d="M.93,9h.12l8.16-.49h.21L8.67,5.05a.43.43,0,0,0-.51-.32L.78,6.37a.42.42,0,0,0-.32.5Z"/><path class="cls-2" d="M6.38,4.33l0,0,0,0"/><path class="cls-6" d="M6.59,8.63,5.84,5.22l-2.68.6.66,3,2.77-.17"/><path class="cls-6" d="M6.58,3.41a1,1,0,0,0-.35-.11c-1-.12-1.39,1.21-1.55,1.84a.41.41,0,0,0-.31,0,.42.42,0,0,0-.27.18c-.41-.49-1.4-1.52-2.21-1a1.1,1.1,0,0,0-.27.26.63.63,0,0,0-.12.72c.33.66,2.05.66,2.57.65h.12A.46.46,0,0,0,4.57,6a.46.46,0,0,0,.3-.22L5,5.72c.47-.21,2-1,2-1.71a.65.65,0,0,0-.43-.6M2.05,5.11a.18.18,0,0,1,0-.24.43.43,0,0,1,.14-.13c.33-.22.89.21,1.31.65a2.8,2.8,0,0,1-1.44-.28M5.28,5c.17-.56.48-1.19.87-1.14a.41.41,0,0,1,.17,0c.08,0,.14.09.14.12,0,.19-.52.6-1.18,1"/><path class="cls-7" d="M16.32,24.34A41.35,41.35,0,0,1,16.14,9a.55.55,0,0,0-.53-.52c-2.57.14-12,.71-14.53.85a.56.56,0,0,0-.52.56v0A41.45,41.45,0,0,1,.15,24.42a.55.55,0,0,0,.45.52H15.86a.55.55,0,0,0,.46-.55v-.05"/><path class="cls-2" d="M11.54,12.53A.55.55,0,0,1,11,12a.55.55,0,0,1,.55-.55.54.54,0,0,1,.55.55.55.55,0,0,1-.55.55"/><path class="cls-2" d="M4.67,12.56A.55.55,0,0,1,4.12,12a.55.55,0,0,1,.55-.55.54.54,0,0,1,.55.55.55.55,0,0,1-.55.55"/><path class="cls-2" d="M12.1,14.14a4,4,0,0,1-8,0,.55.55,0,0,1,.55-.55.55.55,0,0,1,.55.55h0a2.89,2.89,0,1,0,5.77,0h0a.55.55,0,0,1,.55-.55.55.55,0,0,1,.55.55"/><path class="cls-7" d="M55.39,9.94h0l0,0a4.74,4.74,0,0,0-2.09,2.75l-.14.5.47-.21a5.16,5.16,0,0,1,4,.7,4.25,4.25,0,0,1,2,3.72c0,3.91-2.79,4.71-3.54,4.71-3,0-3.65-3.43-3.65-4.63V4.35H52a4.61,4.61,0,0,0-3.67,1.83l0,.07V17.39a7.84,7.84,0,0,0,2.57,5.72,7.16,7.16,0,0,0,5,1.89c2.07,0,7.46-1.35,7.46-7.54a7.14,7.14,0,0,0-1.65-4.71A8.11,8.11,0,0,0,55.39,9.94Z"/><path class="cls-7" d="M73.87,8.31a2,2,0,1,0-2-2A2,2,0,0,0,73.87,8.31Z"/><path class="cls-7" d="M71.92,11.8l0,.07V25h.24A4.78,4.78,0,0,0,75.8,23.2l.06-.07V10h-.25A4.67,4.67,0,0,0,71.92,11.8Z"/><path class="cls-7" d="M44.1,4.36a2,2,0,1,0,2,2A2,2,0,0,0,44.1,4.36Z"/><path class="cls-7" d="M42.15,11.83l0,.06V25h.24A4.81,4.81,0,0,0,46,23.23l.06-.07v-.65c0-2.43,0-11.85,0-12.26V10h-.25A4.67,4.67,0,0,0,42.15,11.83Z"/><path class="cls-7" d="M25.62,9.94h-.05l0,0a4.77,4.77,0,0,0-2.09,2.75l-.14.5.47-.21a5.16,5.16,0,0,1,4,.7,4.25,4.25,0,0,1,2,3.72c0,3.91-2.79,4.71-3.54,4.71-3,0-3.65-3.43-3.65-4.63V4.35h-.24a4.61,4.61,0,0,0-3.67,1.83l-.05.07V17.39a7.84,7.84,0,0,0,2.57,5.72,7.16,7.16,0,0,0,5,1.89c2.07,0,7.46-1.35,7.46-7.54A7.14,7.14,0,0,0,32,12.75,8.08,8.08,0,0,0,25.62,9.94Z"/><path class="cls-7" d="M35.9,2l0,.06V24.94h.24a4.4,4.4,0,0,0,3.69-1.84l0-.06V.15h-.24A4.6,4.6,0,0,0,35.9,2Z"/><path class="cls-7" d="M65.67,2l0,.06V24.94h.24a4.4,4.4,0,0,0,3.69-1.84l0-.06V.15h-.25A4.6,4.6,0,0,0,65.67,2Z"/></svg>